<svg xmlns="http://www.w3.org/2000/svg" width="1200" height="800" viewBox="0 0 1200 800">
  <defs>
    <radialGradient id="bubble" cx="50%" cy="50%" r="50%">
      <stop offset="0%" stop-color="white" stop-opacity="0.7"/>
      <stop offset="60%" stop-color="white" stop-opacity="0.2"/>
      <stop offset="100%" stop-color="white" stop-opacity="0"/>
    </radialGradient>
    <filter id="soft" x="-20%" y="-20%" width="140%" height="140%">
      <feGaussianBlur stdDeviation="3"/>
    </filter>
  </defs>
  <rect width="1200" height="800" fill="#000"/>
  <!-- Large bubbles -->
  <circle cx="250" cy="650" r="80" fill="url(#bubble)" filter="url(#soft)"/>
  <circle cx="480" cy="540" r="60" fill="url(#bubble)" filter="url(#soft)"/>
  <circle cx="820" cy="620" r="90" fill="url(#bubble)" filter="url(#soft)"/>
  <circle cx="1020" cy="500" r="70" fill="url(#bubble)" filter="url(#soft)"/>
  <!-- Medium bubbles -->
  <circle cx="360" cy="360" r="40" fill="url(#bubble)" filter="url(#soft)"/>
  <circle cx="700" cy="380" r="45" fill="url(#bubble)" filter="url(#soft)"/>
  <circle cx="980" cy="360" r="35" fill="url(#bubble)" filter="url(#soft)"/>
  <circle cx="180" cy="420" r="38" fill="url(#bubble)" filter="url(#soft)"/>
  <!-- Small bubbles -->
  <circle cx="220" cy="220" r="18" fill="url(#bubble)" filter="url(#soft)"/>
  <circle cx="440" cy="240" r="22" fill="url(#bubble)" filter="url(#soft)"/>
  <circle cx="600" cy="210" r="16" fill="url(#bubble)" filter="url(#soft)"/>
  <circle cx="840" cy="220" r="20" fill="url(#bubble)" filter="url(#soft)"/>
  <circle cx="1040" cy="260" r="18" fill="url(#bubble)" filter="url(#soft)"/>
  <!-- Tiny bubbles -->
  <circle cx="300" cy="140" r="10" fill="url(#bubble)" filter="url(#soft)"/>
  <circle cx="520" cy="160" r="9" fill="url(#bubble)" filter="url(#soft)"/>
  <circle cx="760" cy="120" r="11" fill="url(#bubble)" filter="url(#soft)"/>
  <circle cx="960" cy="140" r="8" fill="url(#bubble)" filter="url(#soft)"/>
</svg>